<?xml version="1.0" encoding="iso-8859-1"?>
<!-- Uploaded to: SVG Repo, www.svgrepo.com, Generator: SVG Repo Mixer Tools -->
<svg height="30px" width="30px" version="1.1" id="Layer_1" xmlns="http://www.w3.org/2000/svg" xmlns:xlink="http://www.w3.org/1999/xlink" 
	 viewBox="0 0 512 512" xml:space="preserve">
<polyline style="fill:#CFDCE5;" points="340.891,81.645 408.179,81.645 408.179,502.971 104.055,502.971 104.055,81.645 
	171.332,81.645 "/>
<polygon style="fill:#FF6F52;" points="256.116,8.359 195.835,83.966 226.422,83.966 226.422,172.636 285.809,172.636 
	285.809,83.966 316.396,83.966 "/>
<path d="M103.938,425.651c4.801,0,8.694-3.892,8.694-8.694V90.675h58.583c4.801,0,8.694-3.892,8.694-8.694s-3.892-8.694-8.694-8.694
	h-67.277c-4.801,0-8.694,3.892-8.694,8.694v334.976C95.244,421.758,99.137,425.651,103.938,425.651z"/>
<path d="M408.062,73.288h-67.288c-4.801,0-8.694,3.892-8.694,8.694s3.892,8.694,8.694,8.694h58.595v403.938H112.632v-48.677
	c0-4.801-3.892-8.694-8.694-8.694c-4.801,0-8.694,3.892-8.694,8.694v57.371c0,4.801,3.892,8.694,8.694,8.694h304.124
	c4.801,0,8.694-3.892,8.694-8.694V81.981C416.756,77.18,412.863,73.288,408.062,73.288z"/>
<path d="M195.718,92.996h21.894v79.977c0,4.801,3.892,8.694,8.694,8.694h59.385c4.801,0,8.694-3.892,8.694-8.694v-23.181
	c0-4.801-3.892-8.694-8.694-8.694c-4.801,0-8.694,3.892-8.694,8.694v14.487h-41.998V84.302c0-4.801-3.892-8.694-8.694-8.694h-12.538
	l42.231-52.969l42.231,52.969H285.69c-4.801,0-8.694,3.892-8.694,8.694v39.282c0,4.801,3.892,8.694,8.694,8.694
	c4.801,0,8.694-3.892,8.694-8.694V92.996h21.894c3.34,0,6.383-1.913,7.832-4.922c1.449-3.008,1.047-6.58-1.035-9.192L262.796,3.275
	C261.147,1.206,258.644,0,255.999,0c-2.645,0-5.148,1.206-6.797,3.275l-60.28,75.609c-2.082,2.61-2.484,6.183-1.035,9.192
	C189.334,91.083,192.378,92.996,195.718,92.996z"/>
<path d="M160.377,207.744c-4.801,0-8.694,3.892-8.694,8.694s3.892,8.694,8.694,8.694H176.6c4.801,0,8.694-3.892,8.694-8.694
	s-3.892-8.694-8.694-8.694H160.377z"/>
<path d="M351.623,207.744H205.578c-4.801,0-8.694,3.892-8.694,8.694s3.892,8.694,8.694,8.694h146.045
	c4.801,0,8.694-3.892,8.694-8.694S356.425,207.744,351.623,207.744z"/>
<path d="M160.377,270.678h87.507c4.801,0,8.694-3.892,8.694-8.694s-3.892-8.694-8.694-8.694h-87.507
	c-4.801,0-8.694,3.892-8.694,8.694S155.575,270.678,160.377,270.678z"/>
<path d="M351.623,253.291h-74.762c-4.801,0-8.694,3.892-8.694,8.694s3.892,8.694,8.694,8.694h74.762
	c4.801,0,8.694-3.892,8.694-8.694S356.425,253.291,351.623,253.291z"/>
<path d="M351.623,298.84H160.377c-4.801,0-8.694,3.892-8.694,8.694c0,4.801,3.892,8.694,8.694,8.694h191.247
	c4.801,0,8.694-3.892,8.694-8.694C360.317,302.732,356.425,298.84,351.623,298.84z"/>
<path d="M160.377,344.387c-4.801,0-8.694,3.892-8.694,8.694c0,4.801,3.892,8.694,8.694,8.694h50.418
	c4.801,0,8.694-3.892,8.694-8.694c0-4.801-3.892-8.694-8.694-8.694H160.377z"/>
<path d="M351.623,344.387h-111.85c-4.801,0-8.694,3.892-8.694,8.694c0,4.801,3.892,8.694,8.694,8.694h111.85
	c4.801,0,8.694-3.892,8.694-8.694C360.317,348.279,356.425,344.387,351.623,344.387z"/>
<path d="M351.623,435.483H278.6c-4.801,0-8.694,3.892-8.694,8.694c0,4.801,3.892,8.694,8.694,8.694h73.024
	c4.801,0,8.694-3.892,8.694-8.694C360.317,439.375,356.425,435.483,351.623,435.483z"/>
</svg>